<svg width="221" height="233" viewBox="0 0 221 233" fill="none" xmlns="http://www.w3.org/2000/svg">
<g clip-path="url(#clip0)">
<path d="M96.89 1.63999C91.5648 2.85235 86.4093 4.7164 81.54 7.18999C74.3072 11.0329 67.7536 16.036 62.14 22C60.65 23.7 60.31 23.88 58.14 24.2C48.0704 25.8301 38.499 29.7134 30.14 35.56C24.1218 39.6082 18.8647 44.6859 14.61 50.56C8.50942 58.6447 4.3768 68.0398 2.54003 78C0.790851 88.1877 1.30984 98.6358 4.06003 108.6L5.36003 112.94L3.55003 118.36C1.52804 124.284 0.366206 130.467 0.100028 136.72C-0.139972 140.72 0.0100281 142.59 1.10003 149.65C2.19003 156.71 2.57003 158.55 3.87003 162.03C10.4834 179.91 22.6467 192.863 40.36 200.89C44.304 202.493 48.3619 203.8 52.5 204.8C55.05 205.33 55.28 205.46 57.5 208.15C63.6742 215.478 71.3293 221.417 79.9624 225.576C88.5955 229.735 98.011 232.02 107.59 232.28C115.744 232.14 123.832 230.792 131.59 228.28C141.42 224.532 150.284 218.627 157.53 211C159.78 208.61 160.04 208.41 162.1 208.11C163.31 207.93 166.15 207.31 168.42 206.77C182.558 203.219 195.145 195.139 204.26 183.763C213.374 172.388 218.516 158.342 218.9 143.77C218.901 136.678 217.963 129.616 216.11 122.77L215 119.14L216.72 114.23C220.156 104.341 221.164 93.7705 219.66 83.41C218.567 74.9238 215.8 66.739 211.52 59.33C202.79 43.94 186.58 31.8 169.68 27.93C165.8 27.05 164.92 26.69 164.25 25.76C161.51 22.3595 158.501 19.1858 155.25 16.27C142.72 5.15999 123.34 -1.32001 107.4 0.229989L102.11 0.709989C100.354 0.924117 98.6117 1.23459 96.89 1.63999Z" fill="#FDDE4B"/>
<path d="M117.749 177.074C104.944 177.074 93.3347 174.322 82.9225 168.816C72.63 163.191 64.4918 155.472 58.5078 145.658C52.6435 135.725 49.7113 124.535 49.7113 112.088C49.7113 99.6413 52.6435 88.511 58.5078 78.6973C64.4918 68.7638 72.63 61.0445 82.9225 55.5392C93.3347 49.9142 105.003 47.1017 117.929 47.1017C128.82 47.1017 138.634 49.0166 147.37 52.8464C156.227 56.6761 163.647 62.1814 169.631 69.3622L150.961 86.5961C142.463 76.7824 131.931 71.8755 119.365 71.8755C111.586 71.8755 104.644 73.6109 98.5407 77.0816C92.4371 80.4326 87.6499 85.16 84.1791 91.2637C80.8281 97.3673 79.1526 104.309 79.1526 112.088C79.1526 119.867 80.8281 126.809 84.1791 132.912C87.6499 139.016 92.4371 143.803 98.5407 147.274C104.644 150.625 111.586 152.3 119.365 152.3C131.931 152.3 142.463 147.334 150.961 137.4L169.631 154.634C163.647 161.935 156.227 167.5 147.37 171.33C138.514 175.159 128.64 177.074 117.749 177.074Z" fill="#111111"/>
</g>
<defs>
<clipPath id="clip0">
<rect width="220.34" height="232.29" fill="white"/>
</clipPath>
</defs>
</svg>
