<svg width="100" height="100" viewBox="0 0 100 100" fill="none" xmlns="http://www.w3.org/2000/svg">
<g clip-path="url(#clip0)">
<path opacity="0.6" d="M33.1577 100C42.3577 100 49.8243 92.5332 49.8243 83.3332V66.6669H33.1577C23.9577 66.6669 16.491 74.1332 16.491 83.3332C16.491 92.5332 23.9577 100 33.1577 100Z" fill="black"/>
<path opacity="0.8" d="M16.491 50C16.491 40.8 23.9577 33.3333 33.1577 33.3333H49.8243V66.6668H33.1577C23.9577 66.6668 16.491 59.2 16.491 50Z" fill="black"/>
<path d="M16.491 16.6667C16.491 7.46668 23.9577 0 33.1577 0H49.8243V33.3333H33.1577C23.9577 33.3333 16.491 25.8667 16.491 16.6667Z" fill="black"/>
<path opacity="0.9" d="M49.8247 0H66.4915C75.6915 0 83.1579 7.46668 83.1579 16.6667C83.1579 25.8667 75.6915 33.3333 66.4915 33.3333H49.8247V0Z" fill="black"/>
<path opacity="0.7" d="M83.1579 50C83.1579 59.2 75.6915 66.6668 66.4915 66.6668C57.2915 66.6668 49.8247 59.2 49.8247 50C49.8247 40.8 57.2915 33.3333 66.4915 33.3333C75.6915 33.3333 83.1579 40.8 83.1579 50Z" fill="black"/>
</g>
<defs>
<clipPath id="clip0">
<rect width="100" height="100" fill="white"/>
</clipPath>
</defs>
</svg>
