<svg width="72" height="100" viewBox="0 0 72 100" fill="none" xmlns="http://www.w3.org/2000/svg">
<g clip-path="url(#clip0)">
<path d="M2.39199 65.3046L12.2457 1.92353C12.3162 1.45332 12.5332 1.01734 12.866 0.677731C13.1987 0.338122 13.6302 0.112213 14.0989 0.0322034C14.5676 -0.0478063 15.0495 0.022166 15.4761 0.232147C15.9027 0.442129 16.2521 0.781403 16.4745 1.20162L27.0695 21.0877L2.39199 65.3046ZM72.3686 80.6851L62.9881 22.3559C62.9195 21.9455 62.7394 21.5617 62.4674 21.2467C62.1955 20.9317 61.8421 20.6975 61.4461 20.5698C61.0507 20.4434 60.6282 20.4286 60.2251 20.5271C59.8219 20.6256 59.4538 20.8335 59.1612 21.1279L0 80.6851L32.7347 99.1349C33.7448 99.7021 34.8837 100 36.0421 100C37.2005 100 38.3395 99.7021 39.3495 99.1349L72.3686 80.6851ZM45.7679 29.782L38.1841 15.2737C37.9931 14.9077 37.7056 14.601 37.3527 14.3869C36.9997 14.1727 36.5949 14.0594 36.182 14.0591C35.3425 14.0591 34.5715 14.528 34.1815 15.2737L0.89309 74.9351L45.7679 29.782Z" fill="black"/>
</g>
<defs>
<clipPath id="clip0">
<rect width="72" height="100" fill="white"/>
</clipPath>
</defs>
</svg>
