<svg width="88" height="100" viewBox="0 0 88 100" fill="none" xmlns="http://www.w3.org/2000/svg">
<g clip-path="url(#clip0)">
<path d="M85.8495 46.1035L47.6562 7.90041C46.5989 6.84405 45.1654 6.25067 43.6708 6.25067C42.1762 6.25067 40.7428 6.84405 39.6855 7.90041L31.7441 15.836L41.8066 25.8985C47.0917 24.1133 52.0956 29.1738 50.2812 34.4297L59.9804 44.1289C66.6659 41.8242 71.9296 50.1836 66.9081 55.2012C61.7343 60.375 53.1952 54.6406 55.9706 47.9082L46.9179 38.8672V62.666C51.8593 65.1153 51.2655 70.8399 48.6913 73.4082C47.4336 74.6652 45.7283 75.3713 43.9501 75.3713C42.172 75.3713 40.4666 74.6652 39.2089 73.4082C35.7773 69.9707 37.0468 64.2461 41.4062 62.4707V38.4473C37.3437 36.7852 36.6015 32.4434 37.7655 29.6582L27.8456 19.7266L1.6503 45.9258C0.593464 46.9829 -0.000244141 48.4164 -0.000244141 49.9112C-0.000244141 51.4059 0.593464 52.8395 1.6503 53.8965L39.8554 92.0996C40.9124 93.1559 42.3455 93.7492 43.8398 93.7492C45.334 93.7492 46.7672 93.1559 47.8241 92.0996L85.8495 54.0742C86.9064 53.0172 87.5001 51.5836 87.5001 50.0889C87.5001 48.5941 86.9064 47.1606 85.8495 46.1035V46.1035Z" fill="black"/>
</g>
<defs>
<clipPath id="clip0">
<rect width="87.5" height="100" fill="white"/>
</clipPath>
</defs>
</svg>
