<svg width="91" height="100" viewBox="0 0 91 100" fill="none" xmlns="http://www.w3.org/2000/svg">
<g clip-path="url(#clip0)">
<path d="M84.796 49.1883C84.796 44.0526 80.6327 39.8894 75.497 39.8894C75.1667 39.8894 74.8409 39.907 74.5197 39.9406L87.2917 2.271H33.0147L45.7688 39.9081C45.5819 39.8968 45.3939 39.8894 45.2038 39.8894C40.0681 39.8894 35.9048 44.0526 35.9048 49.1883C35.9048 53.3395 38.6253 56.854 42.3804 58.0498C40.397 61.4851 37.9016 64.5791 35.0684 67.2519C31.2158 70.8865 26.8066 73.6424 22.038 75.3406C16.3603 72.424 13.679 65.9371 16.0985 60.2498C16.3716 59.6077 16.6504 58.9565 16.9172 58.3084C21.0303 57.3484 24.0953 53.6607 24.0953 49.2551C24.0953 44.1194 19.932 39.9562 14.7963 39.9562C9.6603 39.9562 5.49705 44.1194 5.49705 49.2551C5.49705 52.4046 7.06418 55.1858 9.45924 56.8682C7.15747 62.1088 3.77443 67.5929 2.72037 73.9491C1.45712 81.5671 2.71648 89.6533 9.30482 94.2198C24.649 104.854 41.3048 87.6272 58.8663 83.2964C65.2306 81.7268 72.2168 81.9798 77.8243 78.7321C82.0352 76.2933 84.8112 72.2516 85.5992 67.7137C86.3773 63.2311 85.2426 58.7678 82.6334 55.1487C83.9829 53.5346 84.796 51.4569 84.796 49.1883ZM54.502 49.2212C54.502 49.2102 54.5031 49.1993 54.5031 49.1883C54.5031 45.8159 52.7073 42.8625 50.0204 41.2325L60.1716 20.7056L70.3405 41.4501C67.8433 43.1173 66.1978 45.9604 66.1978 49.1883C66.1978 49.2562 66.2016 49.3229 66.2031 49.3904L54.502 49.2212Z" fill="white"/>
<path d="M87.0668 49.1883C87.0668 43.5399 82.9972 38.8269 77.6364 37.8201L90.4594 0H29.8467L42.6891 37.8968C37.5149 39.0484 33.6336 43.6724 33.6336 49.1883C33.6336 53.3307 35.8226 56.9693 39.1035 59.0138C37.5255 61.3647 35.6541 63.577 33.5096 65.6C30.1088 68.8085 26.3198 71.2417 22.235 72.8424C18.1209 70.2579 16.3816 65.3844 18.188 61.1385L18.3293 60.8064C18.4177 60.5986 18.5064 60.3901 18.5947 60.1816C23.1134 58.606 26.3661 54.3046 26.3661 49.2551C26.3661 42.8753 21.1756 37.6852 14.7958 37.6852C8.41591 37.6852 3.22581 42.8753 3.22581 49.2551C3.22581 52.4753 4.54913 55.3912 6.67916 57.4908C6.29295 58.3141 5.88694 59.1509 5.46962 60.0081C3.52192 64.0085 1.3145 68.5428 0.479518 73.5777C-1.17879 83.5774 1.49577 91.571 8.01061 96.0862C11.964 98.8261 15.9785 99.9039 20.0184 99.9035C27.6258 99.9032 35.3209 96.0816 42.8474 92.3431C48.2682 89.6509 53.8732 86.8668 59.4099 85.5014C61.47 84.9933 63.5898 84.6876 65.8339 84.364C70.2841 83.7219 74.8862 83.0583 78.9626 80.6975C83.6873 77.9608 86.9219 73.37 87.8364 68.1025C88.6216 63.5806 87.6763 59.0519 85.3717 55.2109C86.4463 53.4555 87.0668 51.3933 87.0668 49.1883ZM82.5247 49.1883C82.5247 53.0636 79.3721 56.2166 75.4965 56.2166C71.6216 56.2166 68.4686 53.0636 68.4686 49.1883C68.4686 45.3131 71.6216 42.1604 75.4965 42.1604C79.3721 42.1604 82.5247 45.3131 82.5247 49.1883ZM84.1233 4.54205L72.8 37.9389C72.3092 38.0565 71.8308 38.2049 71.3661 38.3834L60.1802 15.5643L48.9619 38.2484C48.477 38.0813 47.9781 37.9438 47.4664 37.842L36.182 4.54205H84.1233ZM45.2035 42.1604C49.0788 42.1604 52.2315 45.3131 52.2315 49.1883C52.2315 53.0636 49.0788 56.2166 45.2035 56.2166C41.3286 56.2166 38.1756 53.0636 38.1756 49.1883C38.1756 45.3131 41.3286 42.1604 45.2035 42.1604ZM14.7958 42.2272C18.6714 42.2272 21.824 45.3799 21.824 49.2551C21.824 53.1304 18.6714 56.2834 14.7958 56.2834C10.9209 56.2834 7.76786 53.1304 7.76786 49.2551C7.76786 45.3799 10.9209 42.2272 14.7958 42.2272ZM83.3611 67.3254C82.6774 71.2647 80.2442 74.706 76.6859 76.7668C73.3689 78.688 69.394 79.2615 65.1855 79.8682C62.9311 80.1933 60.5997 80.5297 58.3223 81.0915C52.3004 82.5763 46.4675 85.4735 40.8269 88.2753C29.5389 93.882 19.7901 98.7237 10.5982 92.353C3.86503 87.6866 4.17598 79.0523 4.96044 74.3208C5.68729 69.9375 7.65266 65.9004 9.55337 61.9961C9.88234 61.3205 10.2018 60.6587 10.5152 60.0011C11.458 60.3781 12.4604 60.635 13.5053 60.7516C11.5707 67.1371 14.6134 74.0799 20.9997 77.3608L21.8735 77.8099L22.7993 77.4802C27.8481 75.6823 32.5 72.7968 36.6265 68.9039C39.294 66.3876 41.5862 63.6035 43.471 60.6286C44.0364 60.7138 44.6149 60.7587 45.2035 60.7587C51.5834 60.7587 56.7739 55.5685 56.7739 49.1883C56.7739 45.7572 55.271 42.6717 52.8908 40.5509L60.1622 25.847L67.5074 40.8311C65.3035 42.9392 63.9265 45.9049 63.9265 49.1883C63.9265 55.5685 69.1166 60.7587 75.4965 60.7587C77.9477 60.7587 80.2216 59.9905 82.0944 58.6852C83.3947 61.347 83.8792 64.342 83.3611 67.3254Z" fill="black"/>
</g>
<defs>
<clipPath id="clip0">
<rect width="90.4594" height="100" fill="white"/>
</clipPath>
</defs>
</svg>
