<svg width="27" height="30" viewBox="0 0 27 30" fill="none" xmlns="http://www.w3.org/2000/svg">
<g clip-path="url(#clip0)">
<path d="M5.87578 26.25H0.433594V8.72457H5.87578V26.25ZM3.15176 6.33395C1.41152 6.33395 0 4.89254 0 3.15231C1.24559e-08 2.31641 0.332059 1.51475 0.923129 0.923678C1.5142 0.332609 2.31586 0.000549316 3.15176 0.000549316C3.98766 0.000549316 4.78932 0.332609 5.38039 0.923678C5.97146 1.51475 6.30352 2.31641 6.30352 3.15231C6.30352 4.89254 4.89141 6.33395 3.15176 6.33395ZM26.2441 26.25H20.8137V17.7187C20.8137 15.6855 20.7727 13.0781 17.9842 13.0781C15.1547 13.0781 14.7211 15.2871 14.7211 17.5722V26.25H9.28477V8.72457H14.5043V11.1152H14.5805C15.307 9.73824 17.0818 8.28512 19.7297 8.28512C25.2375 8.28512 26.25 11.9121 26.25 16.623V26.25H26.2441Z" fill="black"/>
</g>
<defs>
<clipPath id="clip0">
<rect width="26.25" height="30" fill="white"/>
</clipPath>
</defs>
</svg>
