<svg width="114" height="100" viewBox="0 0 114 100" fill="none" xmlns="http://www.w3.org/2000/svg">
<g clip-path="url(#clip0)">
<path d="M113.672 44.2578C113.672 23.2617 88.218 6.25 56.8359 6.25C25.4539 6.25 0 23.2617 0 44.2578C0 62.9688 20.2105 78.5156 46.8383 81.6602V93.75H66.2271V81.7383C70.9813 81.2109 75.54 80.293 79.8051 79.0234L87.6506 93.75H109.563L96.3765 71.543C107.039 64.6289 113.672 54.9609 113.672 44.2578V44.2578ZM22.3431 47.0898C22.3431 32.7344 41.6927 21.1133 65.5423 21.1133C89.3919 21.1133 107 29.0625 107 47.0898C107 56.875 101.816 63.6914 93.2462 67.8711C92.7766 67.5586 92.3266 67.3047 91.994 67.1484C89.9984 66.1328 86.555 65.0977 86.555 65.0977C86.555 65.0977 103.498 63.8477 103.498 46.9922C103.498 30.1367 85.7724 29.8242 85.7724 29.8242H46.8383V70.5078C32.3407 66.3086 22.3431 57.4023 22.3431 47.0898V47.0898ZM66.3836 54.5703V43.7109C77.6921 43.7109 83.5615 42.3828 83.5615 49.043C83.5615 56.1719 76.0878 54.5703 66.3836 54.5703ZM66.2075 68.7305H71.4118C73.5248 68.7305 75.1095 71.0156 76.1073 72.4805C72.9574 72.8516 69.6509 73.0273 66.2075 73.0469V68.7305V68.7305Z" fill="black"/>
</g>
<defs>
<clipPath id="clip0">
<rect width="113.672" height="100" fill="white"/>
</clipPath>
</defs>
</svg>
