<svg width="89" height="100" viewBox="0 0 89 100" fill="none" xmlns="http://www.w3.org/2000/svg">
<g clip-path="url(#clip0)">
<path d="M44.1932 0L88.3864 24.9971V75.0029L44.1932 100L0 75.0029V24.9971L44.1932 0Z" fill="white"/>
<path d="M80.4957 73.2785L45.655 92.9885V77.6407L67.3633 65.696L80.4957 73.2785V73.2785ZM82.8823 71.1202V29.9075L70.1382 37.273V63.7661L82.8823 71.1202V71.1202ZM7.75385 73.2785L42.5945 92.9885V77.6407L20.8748 65.696L7.75385 73.2785ZM5.36719 71.1202V29.9075L18.1113 37.273V63.7661L5.36719 71.1202ZM6.86313 27.2354L42.5945 7.02295V21.8568L19.6986 34.4524L19.5159 34.5552L6.86313 27.2354V27.2354ZM81.3864 27.2354L45.655 7.02295V21.8568L68.5509 34.441L68.7336 34.5438L81.3864 27.2354Z" fill="#212121"/>
<path d="M42.5945 74.1464L21.1716 62.3616V39.0317L42.5945 51.3989V74.1464ZM45.6549 74.1464L67.0778 62.373V39.0317L45.6549 51.3989V74.1464ZM22.6219 36.3367L44.1247 24.5176L65.6275 36.3367L44.1247 48.7496L22.6219 36.3367V36.3367Z" fill="black"/>
</g>
<defs>
<clipPath id="clip0">
<rect width="88.3864" height="100" fill="white"/>
</clipPath>
</defs>
</svg>
